<?xml version="1.0" encoding="utf-8"?>
<!-- Generator: Adobe Illustrator 16.0.0, SVG Export Plug-In . SVG Version: 6.00 Build 0)  -->
<!DOCTYPE svg PUBLIC "-//W3C//DTD SVG 1.1//EN" "http://www.w3.org/Graphics/SVG/1.1/DTD/svg11.dtd">
<svg version="1.1" id="Layer_1" xmlns="http://www.w3.org/2000/svg" xmlns:xlink="http://www.w3.org/1999/xlink" x="0px" y="0px"
	 width="335.986px" height="235.19px" viewBox="0 0 335.986 235.19" enable-background="new 0 0 335.986 235.19"
	 xml:space="preserve">
<g>
	<g>
		<rect fill="#CBCDC7" width="335.986" height="235.19"/>
	</g>
</g>
<g opacity="0.15">
	<polygon fill="#4C4846" points="124.421,33.926 130.116,33.926 130.116,20.354 124.421,20.354 99.743,20.354 94.05,20.354 
		94.05,33.926 99.743,33.926 	"/>
	<path fill="#4C4846" d="M244.917,199.794h-35.316c-0.655,0-1.187,0.531-1.187,1.188v0.148h-2.204h-8.115v11.504h8.115h2.204
		c0,0.656,0.531,1.188,1.187,1.188h35.316c0.656,0,1.188-0.531,1.188-1.188v-11.652
		C246.104,200.325,245.573,199.794,244.917,199.794z"/>
	<path fill="#4C4846" d="M168.854,208.396c0-0.656-0.531-1.188-1.187-1.188h-35.316c-0.656,0-1.188,0.531-1.188,1.188v11.652
		c0,0.656,0.531,1.188,1.188,1.188h35.316c0.655,0,1.187-0.531,1.187-1.188V219.9h2.204h8.115v-11.504h-8.115H168.854z"/>
	<path fill="#4C4846" d="M308.083,129.438c2.34,0,4.237-1.897,4.236-4.235V28.2c0-2.341-1.896-4.237-4.236-4.236l-72.223-0.001
		c-2.34,0.001-4.235,1.896-4.236,4.237v40.475h-50.525v-0.744h-18.045v0.744h-74.57v39.749H44.327
		c-2.78-0.001-5.034,2.253-5.035,5.033v4.815h-3.619l-0.001,3.032h3.621v5.01l-3.622-0.001l0.001,3.031h3.62v5.011l-3.619,0.001
		l-0.002,3.029l3.622,0.001v5.012l-3.622-0.001l0.002,3.03h3.619v5.012l-3.619,0.001l-0.001,3.031h3.621v5.01h-3.62l0.001,3.029
		h3.619v5.012h-3.619v3.031h3.619v5.01h-3.621l0.001,3.031h3.619v5.012h-3.619l-0.001,3.027l3.621,0.002v5.014h-3.62l0.001,3.029
		h3.619v5.011h-3.619l-0.001,3.03l3.621,0.001v5.011h-3.621l0.001,3.03l3.619-0.001v4.814c0,2.781,2.254,5.037,5.035,5.035
		l62.098,0.002c2.781-0.002,5.035-2.256,5.035-5.034v-35.647h51.594v0.745h18.045v-0.745h74.568v-49.493L308.083,129.438z"/>
	<circle fill="#4C4846" cx="50.665" cy="62.875" r="29.528"/>
	<path fill="#4C4846" d="M320.087,170.502h-13.099v-0.005h-0.542v-12.31v-4.289c-0.176-0.413-0.586-0.699-1.061-0.699h-13.098
		v-0.005h-4.027v0.005h-22.367c-0.633,0-1.154,0.514-1.154,1.15v44.713c0,0.641,0.521,1.154,1.154,1.154h13.546v16.148
		c0,0.641,0.522,1.154,1.154,1.154h39.493c0.474,0,0.885-0.29,1.061-0.702v-8.478v-32.85v-4.289
		C320.972,170.788,320.561,170.502,320.087,170.502z"/>
	<path fill="#4C4846" d="M150.733,52.607h0.174h48.445h3.477h2.176h4.883c1.914,0,3.477-1.021,3.477-2.273v-7.578
		c0-1.25-1.562-2.273-3.477-2.273h-4.883h-2.176h-3.477h-48.607l-14.422,4.146l-6.152,1.769l6.217,1.879L150.733,52.607z"/>
</g>
<g>
	<path fill="#DBDFE1" d="M277.658,59.159c-4.57-4.544-11.959-4.521-16.502,0.047c-4.543,4.569-4.521,11.959,0.049,16.501
		c4.57,4.545,11.959,4.523,16.502-0.047C282.248,71.092,282.229,63.702,277.658,59.159z M265.787,71.101
		c-2.025-2.015-2.035-5.288-0.021-7.312c2.014-2.026,5.285-2.034,7.311-0.021c2.024,2.014,2.035,5.285,0.021,7.312
		C271.086,73.104,267.812,73.114,265.787,71.101z"/>
</g>
<rect x="94.867" y="15.347" fill="#FFFFFF" width="30.373" height="13.571"/>
<rect x="89.174" y="15.347" fill="#4C4846" width="30.371" height="13.571"/>
<path fill="#4C4846" d="M203.538,195.974c0-0.656,0.531-1.188,1.187-1.188h35.316c0.656,0,1.188,0.531,1.188,1.188v11.652
	c0,0.656-0.531,1.188-1.188,1.188h-35.316c-0.655,0-1.187-0.531-1.187-1.188V195.974z"/>
<rect x="201.334" y="196.122" fill="#4E5352" width="2.204" height="11.504"/>
<rect x="193.219" y="196.122" fill="#FFFFFF" width="8.115" height="11.504"/>
<rect x="196.373" y="203.017" fill="#4E5352" width="1.807" height="2.811"/>
<rect x="196.373" y="197.773" fill="#4E5352" width="1.807" height="2.811"/>
<path fill="#57C0EE" d="M163.978,215.041c0,0.656-0.531,1.188-1.187,1.188h-35.316c-0.656,0-1.188-0.531-1.188-1.188v-11.652
	c0-0.656,0.531-1.188,1.188-1.188h35.316c0.655,0,1.187,0.531,1.187,1.188V215.041z"/>
<rect x="163.978" y="203.389" fill="#4E5352" width="2.204" height="11.504"/>
<rect x="166.182" y="203.389" fill="#FFFFFF" width="8.115" height="11.504"/>
<rect x="169.336" y="205.188" fill="#4E5352" width="1.807" height="2.811"/>
<rect x="169.336" y="210.431" fill="#4E5352" width="1.807" height="2.811"/>
<g>
	<rect x="83.607" y="63.667" fill="#83807F" width="167.184" height="110.256"/>
	<rect x="158.178" y="62.923" fill="#4C4846" width="18.045" height="111.745"/>
	<g>
		<rect x="90.853" y="70.558" fill="#FFFFFF" width="72.53" height="96.476"/>
		<rect x="171.02" y="70.558" fill="#FFFFFF" width="72.529" height="96.476"/>
	</g>
	<g>
		<rect x="158.785" y="75.763" fill="#5D5957" width="16.83" height="1.906"/>
		<rect x="158.785" y="83.411" fill="#5D5957" width="16.83" height="1.909"/>
		<rect x="158.785" y="91.061" fill="#5D5957" width="16.83" height="1.913"/>
		<rect x="158.785" y="98.714" fill="#5D5957" width="16.83" height="1.908"/>
		<rect x="158.785" y="106.365" fill="#5D5957" width="16.83" height="1.906"/>
		<rect x="158.785" y="114.015" fill="#5D5957" width="16.83" height="1.91"/>
		<rect x="158.785" y="121.666" fill="#5D5957" width="16.83" height="1.907"/>
		<rect x="158.785" y="129.316" fill="#5D5957" width="16.83" height="1.908"/>
		<rect x="158.785" y="136.966" fill="#5D5957" width="16.83" height="1.908"/>
		<rect x="158.785" y="144.617" fill="#5D5957" width="16.83" height="1.909"/>
		<rect x="158.785" y="152.269" fill="#5D5957" width="16.83" height="1.911"/>
		<rect x="158.785" y="159.918" fill="#5D5957" width="16.83" height="1.909"/>
	</g>
</g>
<g>
	<path fill="#4C4846" d="M307.443,120.195c0.001,2.338-1.896,4.235-4.236,4.235l-72.222-0.001c-2.34,0-4.236-1.896-4.236-4.234
		l-0.001-97.003c0.001-2.341,1.896-4.236,4.236-4.237l72.223,0.001c2.34-0.001,4.236,1.896,4.236,4.236V120.195z"/>
	<rect x="229.924" y="31.027" fill="#FFFFFF" width="74.342" height="81.33"/>
	<circle fill="#57C0EE" cx="267.097" cy="118.414" r="3.071"/>
</g>
<g>
	<rect x="103.698" y="114.686" fill="#57C0EE" width="6.536" height="15.357"/>
	<rect x="103.698" y="134.558" fill="#57C0EE" width="6.536" height="15.358"/>
	<path fill="#4C4846" d="M106.584,209.57c0,2.778-2.254,5.032-5.035,5.034l-62.098-0.002c-2.78,0.002-5.035-2.254-5.035-5.035
		V108.449c0.001-2.78,2.254-5.034,5.035-5.033h62.097c2.782,0,5.036,2.253,5.036,5.034V209.57z"/>
	<g>
		<rect x="30.796" y="113.265" fill="#302D2A" width="7.198" height="3.032"/>
		<rect x="30.795" y="121.306" fill="#302D2A" width="7.198" height="3.031"/>
		<rect x="30.796" y="129.349" fill="#302D2A" width="7.198" height="3.029"/>
		<rect x="30.796" y="137.39" fill="#302D2A" width="7.197" height="3.03"/>
		<rect x="30.796" y="145.433" fill="#302D2A" width="7.198" height="3.031"/>
		<rect x="30.796" y="153.474" fill="#302D2A" width="7.197" height="3.029"/>
		<rect x="30.797" y="161.515" fill="#302D2A" width="7.198" height="3.031"/>
		<rect x="30.796" y="169.556" fill="#302D2A" width="7.197" height="3.031"/>
		<rect x="30.796" y="177.601" fill="#302D2A" width="7.199" height="3.027"/>
		<rect x="30.796" y="185.642" fill="#302D2A" width="7.199" height="3.029"/>
		<rect x="30.796" y="193.683" fill="#302D2A" width="7.199" height="3.03"/>
		<rect x="30.796" y="201.723" fill="#302D2A" width="7.197" height="3.03"/>
	</g>
	<rect x="44.929" y="113.503" fill="#DBDFE1" width="51.142" height="29.168"/>
</g>
<circle fill="#FFFFFF" cx="45.789" cy="57.867" r="29.528"/>
<circle fill="#57C0EE" cx="45.789" cy="57.867" r="20.473"/>
<circle fill="#4C4846" cx="45.79" cy="57.867" r="15.355"/>
<ellipse fill="#736D69" cx="48.147" cy="60.103" rx="12.178" ry="11.809"/>
<rect x="264.799" y="153.18" fill="#7DD8F2" width="36.771" height="32.85"/>
<path fill="#57C0EE" d="M29.053,38.745c-0.388-0.523-0.277-1.264,0.247-1.652l2.549-1.887c0.524-0.388,1.264-0.278,1.652,0.246
	l3.849,5.199c0.388,0.524,0.278,1.264-0.247,1.651l-2.549,1.889c-0.524,0.387-1.264,0.276-1.652-0.247L29.053,38.745z"/>
<path fill="#FFFFFF" d="M300.51,148.191h-13.098v-0.005h-4.027v0.005h-22.367c-0.633,0-1.154,0.514-1.154,1.15v44.713
	c0,0.641,0.521,1.154,1.154,1.154h39.492c0.475,0,0.885-0.29,1.061-0.702v-45.616C301.395,148.478,300.984,148.191,300.51,148.191z
	 M296.729,182.652h-31.93V153.18h31.93V182.652z"/>
<rect x="279.498" y="170.482" fill="#4C4846" width="36.773" height="32.85"/>
<path fill="#FFFFFF" d="M315.211,165.494h-13.099v-0.005h-4.028v0.005h-22.366c-0.632,0-1.154,0.514-1.154,1.15v44.713
	c0,0.641,0.522,1.154,1.154,1.154h39.493c0.474,0,0.885-0.29,1.061-0.702v-45.616C316.096,165.78,315.685,165.494,315.211,165.494z
	 M311.43,199.955h-31.932v-29.473h31.932V199.955z"/>
<g>
	<path fill="#DBDFE1" d="M281.096,45.734c-7.84-7.793-20.508-7.752-28.299,0.08c-7.791,7.835-7.753,20.507,0.084,28.295
		c7.837,7.794,20.506,7.757,28.297-0.08C288.965,66.195,288.932,53.523,281.096,45.734z M260.738,66.211
		c-3.473-3.455-3.489-9.068-0.038-12.539c3.454-3.475,9.064-3.488,12.538-0.035c3.471,3.453,3.489,9.062,0.037,12.539
		C269.824,69.645,264.211,69.664,260.738,66.211z"/>
</g>
<g>
	<path fill="#57C0EE" d="M273.275,66.176c-3.453,3.466-9.064,3.488-12.537,0.035c-3.473-3.455-3.489-9.068-0.038-12.539
		c3.454-3.475,9.064-3.488,12.538-0.035l7.857-7.902c-7.84-7.793-20.508-7.752-28.299,0.08c-7.791,7.835-7.753,20.507,0.084,28.295
		c7.837,7.794,20.506,7.756,28.297-0.08L273.275,66.176z"/>
</g>
<polyline fill="#DBDFE1" points="286.254,90.025 242.408,90.153 242.396,87.034 292.437,86.89 292.443,90.009 286.254,90.025 "/>
<rect x="246.728" y="93.583" transform="matrix(1 -0.0029 0.0029 1 -0.277 0.7822)" fill="#DBDFE1" width="41.422" height="3.119"/>
<rect x="242.441" y="100.203" transform="matrix(1 -0.003 0.003 1 -0.3007 0.7939)" fill="#DBDFE1" width="50.038" height="3.12"/>
<polyline fill="#DBDFE1" points="141.676,84.27 105.402,84.375 105.392,81.256 146.789,81.137 146.797,84.256 141.676,84.27 "/>
<rect x="105.416" y="87.817" transform="matrix(1 -0.0029 0.0029 1 -0.2593 0.3566)" fill="#DBDFE1" width="34.268" height="3.119"/>
<rect x="105.436" y="94.437" transform="matrix(1 -0.003 0.003 1 -0.2848 0.3754)" fill="#DBDFE1" width="41.395" height="3.12"/>
<polyline fill="#DBDFE1" points="226.799,143.354 190.525,143.459 190.514,140.34 231.912,140.221 231.919,143.34 226.799,143.354 
	"/>
<rect x="190.538" y="146.901" transform="matrix(1 -0.0029 0.0029 1 -0.4307 0.6043)" fill="#DBDFE1" width="34.268" height="3.119"/>
<polyline fill="#DBDFE1" points="86.082,191.89 49.809,191.995 49.798,188.876 91.195,188.757 91.203,191.876 86.082,191.89 "/>
<rect x="53.366" y="195.438" transform="matrix(1 -0.0029 0.0029 1 -0.5723 0.2058)" fill="#DBDFE1" width="34.269" height="3.119"/>
<rect x="190.559" y="153.521" transform="matrix(1 -0.003 0.003 1 -0.46 0.6286)" fill="#DBDFE1" width="41.396" height="3.12"/>
<rect x="118.625" y="106.365" fill="#DBDFE1" width="28.172" height="50.138"/>
<rect x="190.555" y="81.297" fill="#DBDFE1" width="28.171" height="50.138"/>
<g>
	<path fill="#4C4846" d="M208.488,45.326c0,1.252-1.562,2.273-3.477,2.273h-7.059c-1.912,0-3.477-1.021-3.477-2.273v-7.578
		c0-1.25,1.564-2.273,3.477-2.273h7.059c1.914,0,3.477,1.023,3.477,2.273V45.326z"/>
	<g>
		<polygon fill="#FFFFFE" points="131.447,39.62 131.512,43.268 145.857,47.6 146.031,47.6 145.869,35.475 		"/>
		<polygon fill="#0F2534" points="125.295,41.389 131.512,43.268 131.447,39.62 		"/>
		<polygon fill="#57C0EE" points="200.129,35.475 145.869,35.475 146.031,47.6 200.129,47.6 		"/>
	</g>
	<rect x="194.477" y="35.475" fill="#FFFFFE" width="5.652" height="12.125"/>
</g>
</svg>
